HIERARCHY
ROOT Hips
{
	OFFSET 0.000000 0.000000 0.000000
	CHANNELS 6 Xposition Yposition Zposition Zrotation Yrotation Xrotation 
	JOINT LeftUpLeg_virtual
	{
		OFFSET 0.000000 0.000000 0.000000
		CHANNELS 3 Zrotation Yrotation Xrotation
		JOINT LeftUpLeg
		{
			OFFSET 8.479694 -4.795517 -0.379053
			CHANNELS 3 Zrotation Yrotation Xrotation
			JOINT LeftLeg
			{
				OFFSET 0.485052 -32.551468 0.112863
				CHANNELS 3 Zrotation Yrotation Xrotation
				JOINT LeftFoot
				{
					OFFSET 0.438033 -32.635670 -3.012641
					CHANNELS 3 Zrotation Yrotation Xrotation
					JOINT LeftToeBase
					{
						OFFSET 0.970169 -13.225353 11.864223
						CHANNELS 3 Zrotation Yrotation Xrotation
						End Site
						{
							OFFSET 0.000000 0.000000 0.000000
						}
					}
				}
			}
		}
	}
	JOINT RightUpLeg_virtual
	{
		OFFSET 0.000000 0.000000 0.000000
		CHANNELS 3 Zrotation Yrotation Xrotation
		JOINT RightUpLeg
		{
			OFFSET -8.479694 -4.795517 -0.379053
			CHANNELS 3 Zrotation Yrotation Xrotation
			JOINT RightLeg
			{
				OFFSET -0.484100 -32.551483 0.112903
				CHANNELS 3 Zrotation Yrotation Xrotation
				JOINT RightFoot
				{
					OFFSET -0.438985 -32.635651 -3.012681
					CHANNELS 3 Zrotation Yrotation Xrotation
					JOINT RightToeBase
					{
						OFFSET -0.970169 -13.225354 11.864223
						CHANNELS 3 Zrotation Yrotation Xrotation
						End Site
						{
							OFFSET 0.000000 0.000000 0.000000
						}
					}
				}
			}
		}
	}
	JOINT Spine_virtual
	{
		OFFSET 0.000000 0.000000 0.000000
		CHANNELS 3 Zrotation Yrotation Xrotation
		JOINT Spine
		{
			OFFSET 0.000000 7.722015 1.166203
			CHANNELS 3 Zrotation Yrotation Xrotation
			JOINT Spine1
			{
				OFFSET 0.000000 12.024086 0.248766
				CHANNELS 3 Zrotation Yrotation Xrotation
				JOINT Spine2
				{
					OFFSET -0.000000 11.503036 -0.491240
					CHANNELS 3 Zrotation Yrotation Xrotation
					JOINT Neck_virtual
					{
						OFFSET 0.000000 0.000000 0.000000
						CHANNELS 3 Zrotation Yrotation Xrotation
						JOINT Neck
						{
							OFFSET 0.000000 18.430687 -3.123054
							CHANNELS 3 Zrotation Yrotation Xrotation
							JOINT Head
							{
								OFFSET -0.000000 9.051071 1.034021
								CHANNELS 3 Zrotation Yrotation Xrotation
								End Site
								{
									OFFSET 0.000000 0.000000 0.000000
								}
							}
						}
					}
					JOINT LeftShoulder_virtual
					{
						OFFSET 0.000000 0.000000 0.000000
						CHANNELS 3 Zrotation Yrotation Xrotation
						JOINT LeftShoulder
						{
							OFFSET 6.197824 13.665230 -4.064723
							CHANNELS 3 Zrotation Yrotation Xrotation
							JOINT LeftArm
							{
								OFFSET 7.778132 -0.187073 -1.709282
								CHANNELS 3 Zrotation Yrotation Xrotation
								JOINT LeftForeArm
								{
									OFFSET 21.954697 0.000000 -2.041093
									CHANNELS 3 Zrotation Yrotation Xrotation
									JOINT LeftHand
									{
										OFFSET 22.992908 0.000000 -0.870901
										CHANNELS 3 Zrotation Yrotation Xrotation
										End Site
										{
											OFFSET 0.000000 0.000000 0.000000
										}
									}
								}
							}
						}
					}
					JOINT RightShoulder_virtual
					{
						OFFSET 0.000000 0.000000 0.000000
						CHANNELS 3 Zrotation Yrotation Xrotation
						JOINT RightShoulder
						{
							OFFSET -6.197824 13.665230 -4.064723
							CHANNELS 3 Zrotation Yrotation Xrotation
							JOINT RightArm
							{
								OFFSET -7.778132 -0.187073 -1.709282
								CHANNELS 3 Zrotation Yrotation Xrotation
								JOINT RightForeArm
								{
									OFFSET -21.954697 0.000000 -2.041093
									CHANNELS 3 Zrotation Yrotation Xrotation
									JOINT RightHand
									{
										OFFSET -22.992908 0.000000 -0.870901
										CHANNELS 3 Zrotation Yrotation Xrotation
										End Site
										{
											OFFSET 0.000000 0.000000 0.000000
										}
									}
								}
							}
						}
					}
				}
			}
		}
	}
}
MOTION
Frames: 6
Frame Time: 0.033333
-28.246048 48.504539 1.566857 -179.883455 2.110808 -179.556330 -0.024317 2.262567 27.751267 5.323640 4.328799 -97.633292 5.322492 1.896592 136.010172 0.748243 -12.857327 -20.334014 0.000000 0.000000 0.000000 2.526391 -1.019490 27.441660 -5.518829 -1.934953 -98.979563 1.877712 -0.385008 136.449558 -8.630347 18.447088 -20.125926 0.000000 0.000000 0.000000 5.494259 2.088690 36.936341 1.351083 0.981165 29.526833 1.912065 -4.786028 0.833325 -0.026546 -0.042132 0.010615 2.068675 -4.734583 5.835996 12.608605 -9.313295 -25.862144 0.000000 0.000000 0.000000 3.782962 -3.893842 0.899083 12.100572 -13.810649 1.744962 18.823142 -61.140698 -68.404358 -165.540071 -76.256371 -179.329021 0.000000 0.000000 0.000000 -1.128269 -1.752689 -0.207511 21.499810 31.644239 1.901904 -23.801970 49.900696 -54.361698 -178.086678 52.408277 176.858869 0.000000 0.000000 0.000000 
-28.438580 48.735546 1.096545 179.798419 1.562434 -179.374428 -0.382265 1.311457 26.911772 4.853540 3.463100 -96.563473 5.886277 1.092589 135.944137 -0.048774 -11.920183 -19.253658 0.000000 0.000000 0.000000 2.174980 -2.245895 26.417367 -5.178778 -2.412885 -98.114698 1.656719 -0.300476 135.872243 -8.143979 17.700881 -18.483175 0.000000 0.000000 0.000000 5.206510 1.327553 35.159796 0.758604 0.900249 28.282762 2.011174 -4.796994 0.624926 -0.072095 -0.118697 0.016522 1.998706 -4.714754 5.732913 11.927512 -9.363214 -24.923020 0.000000 0.000000 0.000000 3.730637 -3.915114 0.840626 11.619312 -13.494786 2.018831 17.378583 -60.936079 -65.464495 -167.245214 -76.100226 -176.942184 0.000000 0.000000 0.000000 -1.134114 -1.887212 -0.351568 21.537373 33.573993 2.463093 -22.593513 49.012133 -52.912980 -178.876412 51.496006 176.761525 0.000000 0.000000 0.000000 
-28.530035 48.951920 0.853096 179.382870 1.252202 -179.148854 -1.138134 0.441168 25.698086 3.519866 3.063533 -95.678574 5.418383 0.255968 135.873855 -0.261517 -10.515164 -19.326416 0.000000 0.000000 0.000000 1.693149 -3.004548 25.181924 -4.937679 -2.602241 -97.110216 1.208806 -0.129369 135.649032 -8.209309 16.973438 -18.216617 0.000000 0.000000 0.000000 4.678323 0.963142 33.361475 0.050289 1.143678 27.079631 2.064034 -4.785317 0.468249 -0.058681 -0.271759 0.031065 2.044492 -4.523638 5.494122 11.111541 -9.447614 -24.286145 0.000000 0.000000 0.000000 3.748401 -3.855849 0.684120 11.082694 -12.907254 2.153513 15.041987 -60.541130 -61.490629 -169.667090 -76.317105 -174.041689 0.000000 0.000000 0.000000 -1.071263 -1.920252 -0.622295 21.546785 35.415422 3.035131 -21.269083 47.628142 -51.552738 -179.533271 50.670052 176.782002 0.000000 0.000000 0.000000 
-28.541853 49.123344 0.893369 179.218754 1.085548 -179.147748 -1.587807 -0.370692 24.315521 3.217589 2.817225 -95.352419 4.515592 0.901736 135.590238 -1.117179 -10.875112 -22.818646 0.000000 0.000000 0.000000 1.153278 -4.239092 23.394361 -4.048061 -3.282531 -96.781042 0.909740 -0.270762 134.931876 -8.137488 15.963359 -19.482788 0.000000 0.000000 0.000000 3.848808 0.293035 32.007994 -0.743670 1.350288 25.965714 2.150361 -4.572774 0.273975 -0.022988 -0.327984 0.042262 2.037361 -4.250833 5.286015 10.077151 -9.581523 -23.403742 0.000000 0.000000 0.000000 3.794468 -3.588208 0.515288 10.500968 -12.093068 2.419800 12.484797 -59.948311 -57.489149 -172.761425 -76.823700 -170.666797 0.000000 0.000000 0.000000 -1.018125 -1.690959 -0.729230 21.396599 37.344978 3.565659 -19.893990 45.816048 -50.451240 179.852773 50.029681 176.784871 0.000000 0.000000 0.000000 
-28.564264 49.220097 1.166567 179.010720 1.013935 -179.060130 -2.393629 -1.584285 23.264285 3.343718 2.910786 -95.268278 3.878733 1.304339 135.588407 -2.049058 -11.746504 -24.475155 0.000000 0.000000 0.000000 0.431346 -5.568678 21.928645 -3.312634 -3.474598 -96.489843 0.775555 -0.304728 134.560601 -7.912309 14.792875 -20.836991 0.000000 0.000000 0.000000 2.943932 -0.669385 30.967712 -1.538240 1.579903 24.910742 2.219421 -4.293739 0.101744 -0.019539 -0.371834 0.102602 2.141971 -3.831091 4.988537 9.074170 -9.537423 -22.585706 0.000000 0.000000 0.000000 3.874539 -3.097574 0.392276 9.836194 -11.351364 2.287987 10.351225 -59.917151 -53.864866 -176.389977 -77.499274 -166.977484 0.000000 0.000000 0.000000 -0.824426 -1.459688 -0.711943 21.156497 39.189416 3.833762 -18.609620 43.877316 -49.327913 179.376204 49.537460 176.806072 0.000000 0.000000 0.000000 
-28.665239 49.240810 1.606002 178.990325 1.311646 -178.956912 -3.264739 -3.280553 22.703001 3.350599 3.781132 -95.368183 3.787689 1.167224 136.063474 -1.143839 -12.521749 -23.651547 0.000000 0.000000 0.000000 -0.121217 -7.128489 20.964246 -2.672591 -3.891991 -96.117366 0.654509 -0.121567 134.248365 -8.373565 14.812479 -21.850106 0.000000 0.000000 0.000000 2.161941 -1.809934 30.261723 -2.193774 1.860282 24.102365 2.318106 -3.883189 -0.059213 -0.032278 -0.371150 0.119995 2.236096 -3.358674 5.021558 8.244989 -9.496121 -22.083339 0.000000 0.000000 0.000000 3.945019 -2.690113 0.457547 9.117271 -10.724836 2.209599 9.886159 -60.559319 -51.916896 178.713826 -78.303037 -162.205395 0.000000 0.000000 0.000000 -0.731131 -0.983224 -0.657505 21.157172 40.457984 4.148924 -17.711311 42.040579 -48.675483 179.031785 49.418697 176.829254 0.000000 0.000000 0.000000 
